<svg width="60" height="60" viewBox="0 0 60 60" fill="none" xmlns="http://www.w3.org/2000/svg">
<g clip-path="url(#clip0_7_154)">
<path d="M49.6023 42.3937C53.7714 40.0168 55.1277 35.6003 53.2189 30.2982C52.5699 28.499 51.5764 27.3132 50.7782 26.3603C49.871 25.2776 49.2719 24.5623 49.2691 23.3397L49.2624 18.7289C49.2539 13.6247 47.2373 8.88186 43.5839 5.37397C39.9748 1.90851 35.1507 0 30.0001 0C24.8496 0 20.0253 1.90851 16.4162 5.37397C12.763 8.88186 10.7463 13.6247 10.7379 18.7283L10.7279 23.3401C10.7265 24.5635 10.1275 25.2789 9.22066 26.3617C8.42296 27.3142 7.43015 28.4997 6.78117 30.2988C4.87254 35.6008 6.22863 40.0177 10.3973 42.3946C9.09245 44.2988 8.28374 46.8912 8.22339 50.5641C8.22327 50.5705 8.22327 50.5769 8.22327 50.5833V58.828C8.22327 59.4751 8.74804 59.9999 9.39515 59.9999H29.9975C29.9981 59.9999 29.9985 60 29.9991 60H30.0002H30.0012C30.0018 60 30.0023 59.9999 30.0029 59.9999H50.6053C51.2525 59.9999 51.7772 59.4751 51.7772 58.828V50.5834C51.7772 50.577 51.7772 50.5706 51.7771 50.5642C51.7165 46.8907 50.9077 44.2978 49.6023 42.3937ZM8.98605 31.0935C9.49382 29.6861 10.2684 28.7612 11.0176 27.8667C12.0262 26.6622 13.0694 25.4166 13.0717 23.3439L13.0816 18.7327C13.097 9.54268 20.5284 2.34375 30.0001 2.34375C39.4717 2.34375 46.9033 9.54268 46.9186 18.7326L46.9253 23.3442C46.9299 25.4169 47.9728 26.6617 48.9816 27.8657C49.7311 28.7605 50.5063 29.6855 51.014 31.0929C51.9436 33.6751 52.7281 38.2359 48.0116 40.5872C45.6711 38.4926 42.4934 37.5275 39.2225 36.5344C38.6145 36.3498 37.9917 36.1608 37.3639 35.9618V33.0995C41.0876 30.6808 43.5557 26.4854 43.5557 21.7238V18.9534C43.5557 18.3668 43.1219 17.8705 42.5405 17.7921C35.4596 16.8371 30.7013 14.1957 27.9936 9.71717C27.7368 9.29236 27.2398 9.0751 26.7536 9.17588C26.2674 9.27631 25.8972 9.67229 25.8297 10.1642C25.4476 12.9499 23.593 13.7911 21.4456 14.765C19.2176 15.7755 16.4448 17.0331 16.4448 20.9367V21.7239C16.4448 26.4855 18.9129 30.6809 22.6366 33.0997V35.962C22.0088 36.1608 21.386 36.35 20.778 36.5345C17.5065 37.5278 14.3285 38.4931 11.9878 40.5883C7.27183 38.2366 8.05663 33.6752 8.98605 31.0935ZM30.0001 32.9355C23.818 32.9355 18.7884 27.9059 18.7884 21.7237V20.9364C18.7884 18.6499 20.0314 17.9797 22.4136 16.8993C24.1773 16.0994 26.2704 15.1501 27.4085 12.932C30.4478 16.6064 35.0766 18.9658 41.2118 19.9639V21.7238C41.2118 27.9059 36.1823 32.9355 30.0001 32.9355ZM35.02 34.3151V36.7902C34.994 37.4895 34.958 38.1726 34.9139 38.8431C34.8305 38.8912 34.7512 38.9373 34.6783 38.9782C31.6108 40.7 28.5432 40.6961 25.2999 38.9661C25.2338 38.9308 25.162 38.8925 25.0871 38.8534C25.0426 38.1795 25.0064 37.493 24.9802 36.7902V34.3152C26.5336 34.9367 28.2275 35.2792 30.0001 35.2792C31.7728 35.2792 33.4667 34.9367 35.02 34.3151ZM17.7486 57.6561V52.2243C17.7486 51.5772 17.2238 51.0524 16.5767 51.0524C15.9296 51.0524 15.4049 51.5772 15.4049 52.2243V57.6561H10.567V50.5931C10.6335 46.6373 11.624 43.9716 13.6838 42.205C15.6103 40.5525 18.3206 39.7296 21.4588 38.7769C21.8696 38.6522 22.2875 38.5251 22.71 38.3943C22.9252 42.1476 23.4104 45.458 24.1862 48.4732C25.0486 51.825 26.2685 54.848 27.8943 57.656H17.7486V57.6561ZM30.0003 56.6164C27.4891 52.3367 25.9872 47.5274 25.3257 41.5789C26.9166 42.2668 28.4997 42.6109 30.0683 42.6109C31.6196 42.6109 33.1567 42.2732 34.6723 41.6002C34.0096 47.5389 32.5086 52.3418 30.0003 56.6164ZM49.4332 57.6561H44.5953V52.2243C44.5953 51.5772 44.0705 51.0524 43.4234 51.0524C42.7763 51.0524 42.2515 51.5772 42.2515 52.2243V57.6561H32.1059C33.7318 54.8481 34.9518 51.8251 35.8141 48.4733C36.5899 45.4581 37.0751 42.1476 37.2904 38.3944C37.7129 38.5252 38.1308 38.6523 38.5416 38.777C41.6797 39.7298 44.39 40.5527 46.3165 42.2051C48.3763 43.9717 49.3668 46.6374 49.4334 50.5933V57.6561H49.4332Z" fill="white"/>
</g>
<defs>
<clipPath id="clip0_7_154">
<rect width="60" height="60" fill="white"/>
</clipPath>
</defs>
</svg>
